<svg id="visual" viewBox="0 0 900 600" width="900" height="600" xmlns="http://www.w3.org/2000/svg" xmlns:xlink="http://www.w3.org/1999/xlink" version="1.1"><rect x="0" y="0" width="900" height="600" fill="#001220"></rect><defs><linearGradient id="grad1_0" x1="33.3%" y1="100%" x2="100%" y2="0%"><stop offset="20%" stop-color="#001220" stop-opacity="1"></stop><stop offset="80%" stop-color="#001220" stop-opacity="1"></stop></linearGradient></defs><defs><linearGradient id="grad2_0" x1="0%" y1="100%" x2="66.7%" y2="0%"><stop offset="20%" stop-color="#001220" stop-opacity="1"></stop><stop offset="80%" stop-color="#001220" stop-opacity="1"></stop></linearGradient></defs><g transform="translate(900, 600)"><path d="M-243.4 0C-237 -30.7 -230.6 -61.4 -219.9 -91.1C-209.1 -120.8 -194 -149.6 -172.1 -172.1C-150.2 -194.6 -121.6 -210.9 -91.8 -221.7C-62 -232.6 -31 -238 0 -243.4L0 0Z" fill="#FBAE3C"></path></g><g transform="translate(0, 0)"><path d="M243.4 0C236.4 30.2 229.4 60.4 219 90.7C208.5 121 194.6 151.6 172.1 172.1C149.6 192.6 118.5 203.2 88.4 213.4C58.3 223.6 29.1 233.5 0 243.4L0 0Z" fill="#FBAE3C"></path></g></svg>